<svg xmlns="http://www.w3.org/2000/svg" xmlns:xlink="http://www.w3.org/1999/xlink" width="856" height="448" viewBox="0 0 856 448" role="img" aria-label="console2svg output">
<style>
.crt {
  font-family: ui-monospace,"JetBrains Mono","Cascadia Mono","Segoe UI Mono","Noto Sans Mono","SFMono-Regular",Menlo,Consolas,monospace;
  font-size: 14px;
}
text {
  dominant-baseline: alphabetic;
}
.bg {
  shape-rendering: crispEdges;
}
</style>
<rect x="0" y="0" width="856" height="448" fill="#1e1e1e"/>
<g transform="translate(8 8)">
<rect width="840" height="432" fill="#1e1e1e"/>
<rect class="bg" x="0" y="0" width="8.4" height="18" fill="#2B89F0"/>
<rect class="bg" x="8.4" y="0" width="8.4" height="18" fill="#2B89F0"/>
<rect class="bg" x="16.8" y="0" width="8.4" height="18" fill="#2B89F0"/>
<rect class="bg" x="25.2" y="0" width="8.4" height="18" fill="#2B89F0"/>
<rect class="bg" x="33.6" y="0" width="8.4" height="18" fill="#2B89F0"/>
<text class="crt" x="42" y="14" fill="#FEFEFE" textLength="8.4" lengthAdjust="spacing" style="font-weight:bold;">╗</text>
<rect class="bg" x="67.2" y="0" width="8.4" height="18" fill="#2B89F0"/>
<rect class="bg" x="75.6" y="0" width="8.4" height="18" fill="#2B89F0"/>
<rect class="bg" x="84" y="0" width="8.4" height="18" fill="#2B89F0"/>
<rect class="bg" x="92.4" y="0" width="8.4" height="18" fill="#2B89F0"/>
<text class="crt" x="100.8" y="14" fill="#FEFEFE" textLength="8.4" lengthAdjust="spacing" style="font-weight:bold;">╗</text>
<rect class="bg" x="117.6" y="0" width="8.4" height="18" fill="#2B89F0"/>
<rect class="bg" x="126" y="0" width="8.4" height="18" fill="#2B89F0"/>
<rect class="bg" x="134.4" y="0" width="8.4" height="18" fill="#2B89F0"/>
<rect class="bg" x="142.8" y="0" width="8.4" height="18" fill="#2B89F0"/>
<rect class="bg" x="151.2" y="0" width="8.4" height="18" fill="#2B89F0"/>
<text class="crt" x="159.6" y="14" fill="#FEFEFE" textLength="8.4" lengthAdjust="spacing" style="font-weight:bold;">╗</text>
<rect class="bg" x="176.4" y="0" width="8.4" height="18" fill="#2B89F0"/>
<rect class="bg" x="184.8" y="0" width="8.4" height="18" fill="#2B89F0"/>
<rect class="bg" x="193.2" y="0" width="8.4" height="18" fill="#2B89F0"/>
<rect class="bg" x="201.6" y="0" width="8.4" height="18" fill="#2B89F0"/>
<text class="crt" x="210" y="14" fill="#FEFEFE" textLength="8.4" lengthAdjust="spacing" style="font-weight:bold;">╗</text>
<rect class="bg" x="226.8" y="0" width="8.4" height="18" fill="#2B89F0"/>
<rect class="bg" x="235.2" y="0" width="8.4" height="18" fill="#2B89F0"/>
<rect class="bg" x="243.6" y="0" width="8.4" height="18" fill="#2B89F0"/>
<rect class="bg" x="252" y="0" width="8.4" height="18" fill="#2B89F0"/>
<text class="crt" x="260.4" y="14" fill="#FEFEFE" textLength="8.4" lengthAdjust="spacing" style="font-weight:bold;">╗</text>
<rect class="bg" x="277.2" y="0" width="8.4" height="18" fill="#2B89F0"/>
<rect class="bg" x="285.6" y="0" width="8.4" height="18" fill="#2B89F0"/>
<text class="crt" x="294" y="14" fill="#FEFEFE" textLength="8.4" lengthAdjust="spacing" style="font-weight:bold;">╗</text>
<text class="crt" x="352.8" y="14" fill="#2B89F0" textLength="25.2" lengthAdjust="spacing" style="font-weight:bold;">git</text>
<text class="crt" x="386.4" y="14" fill="#2B89F0" textLength="58.8" lengthAdjust="spacing" style="font-weight:bold;">version</text>
<text class="crt" x="453.6" y="14" fill="#2B89F0" textLength="50.4" lengthAdjust="spacing" style="font-weight:bold;">2.53.0</text>
<rect class="bg" x="0" y="18" width="8.4" height="18" fill="#2B89F0"/>
<rect class="bg" x="8.4" y="18" width="8.4" height="18" fill="#2B89F0"/>
<text class="crt" x="16.8" y="32" fill="#FEFEFE" textLength="16.8" lengthAdjust="spacing" style="font-weight:bold;">╔═</text>
<rect class="bg" x="33.6" y="18" width="8.4" height="18" fill="#2B89F0"/>
<rect class="bg" x="42" y="18" width="8.4" height="18" fill="#2B89F0"/>
<text class="crt" x="50.4" y="32" fill="#FEFEFE" textLength="8.4" lengthAdjust="spacing" style="font-weight:bold;">╗</text>
<rect class="bg" x="58.8" y="18" width="8.4" height="18" fill="#2B89F0"/>
<rect class="bg" x="67.2" y="18" width="8.4" height="18" fill="#2B89F0"/>
<text class="crt" x="75.6" y="32" fill="#FEFEFE" textLength="16.8" lengthAdjust="spacing" style="font-weight:bold;">╔═</text>
<rect class="bg" x="92.4" y="18" width="8.4" height="18" fill="#2B89F0"/>
<rect class="bg" x="100.8" y="18" width="8.4" height="18" fill="#2B89F0"/>
<text class="crt" x="109.2" y="32" fill="#FEFEFE" textLength="8.4" lengthAdjust="spacing" style="font-weight:bold;">╗</text>
<rect class="bg" x="117.6" y="18" width="8.4" height="18" fill="#2B89F0"/>
<rect class="bg" x="126" y="18" width="8.4" height="18" fill="#2B89F0"/>
<text class="crt" x="134.4" y="32" fill="#FEFEFE" textLength="33.6" lengthAdjust="spacing" style="font-weight:bold;">╔══╝</text>
<rect class="bg" x="168" y="18" width="8.4" height="18" fill="#2B89F0"/>
<rect class="bg" x="176.4" y="18" width="8.4" height="18" fill="#2B89F0"/>
<text class="crt" x="184.8" y="32" fill="#FEFEFE" textLength="33.6" lengthAdjust="spacing" style="font-weight:bold;">╔══╝</text>
<rect class="bg" x="218.4" y="18" width="8.4" height="18" fill="#2B89F0"/>
<rect class="bg" x="226.8" y="18" width="8.4" height="18" fill="#2B89F0"/>
<text class="crt" x="235.2" y="32" fill="#FEFEFE" textLength="16.8" lengthAdjust="spacing" style="font-weight:bold;">╔═</text>
<rect class="bg" x="252" y="18" width="8.4" height="18" fill="#2B89F0"/>
<rect class="bg" x="260.4" y="18" width="8.4" height="18" fill="#2B89F0"/>
<text class="crt" x="268.8" y="32" fill="#FEFEFE" textLength="8.4" lengthAdjust="spacing" style="font-weight:bold;">╗</text>
<rect class="bg" x="277.2" y="18" width="8.4" height="18" fill="#2B89F0"/>
<rect class="bg" x="285.6" y="18" width="8.4" height="18" fill="#2B89F0"/>
<text class="crt" x="294" y="32" fill="#FEFEFE" textLength="8.4" lengthAdjust="spacing" style="font-weight:bold;">║</text>
<text class="crt" x="352.8" y="32" fill="#d4d4d4" textLength="151.2" lengthAdjust="spacing">------------------</text>
<rect class="bg" x="0" y="36" width="8.4" height="18" fill="#2B89F0"/>
<rect class="bg" x="8.4" y="36" width="8.4" height="18" fill="#2B89F0"/>
<rect class="bg" x="16.8" y="36" width="8.4" height="18" fill="#2B89F0"/>
<rect class="bg" x="25.2" y="36" width="8.4" height="18" fill="#2B89F0"/>
<rect class="bg" x="33.6" y="36" width="8.4" height="18" fill="#2B89F0"/>
<text class="crt" x="42" y="50" fill="#FEFEFE" textLength="16.8" lengthAdjust="spacing" style="font-weight:bold;">╔╝</text>
<rect class="bg" x="58.8" y="36" width="8.4" height="18" fill="#2B89F0"/>
<rect class="bg" x="67.2" y="36" width="8.4" height="18" fill="#2B89F0"/>
<rect class="bg" x="75.6" y="36" width="8.4" height="18" fill="#2B89F0"/>
<rect class="bg" x="84" y="36" width="8.4" height="18" fill="#2B89F0"/>
<rect class="bg" x="92.4" y="36" width="8.4" height="18" fill="#2B89F0"/>
<rect class="bg" x="100.8" y="36" width="8.4" height="18" fill="#2B89F0"/>
<text class="crt" x="109.2" y="50" fill="#FEFEFE" textLength="8.4" lengthAdjust="spacing" style="font-weight:bold;">║</text>
<rect class="bg" x="117.6" y="36" width="8.4" height="18" fill="#2B89F0"/>
<rect class="bg" x="126" y="36" width="8.4" height="18" fill="#2B89F0"/>
<rect class="bg" x="134.4" y="36" width="8.4" height="18" fill="#2B89F0"/>
<rect class="bg" x="142.8" y="36" width="8.4" height="18" fill="#2B89F0"/>
<rect class="bg" x="151.2" y="36" width="8.4" height="18" fill="#2B89F0"/>
<text class="crt" x="159.6" y="50" fill="#FEFEFE" textLength="8.4" lengthAdjust="spacing" style="font-weight:bold;">╗</text>
<rect class="bg" x="168" y="36" width="8.4" height="18" fill="#2B89F0"/>
<rect class="bg" x="176.4" y="36" width="8.4" height="18" fill="#2B89F0"/>
<text class="crt" x="184.8" y="50" fill="#FEFEFE" textLength="8.4" lengthAdjust="spacing" style="font-weight:bold;">║</text>
<rect class="bg" x="218.4" y="36" width="8.4" height="18" fill="#2B89F0"/>
<rect class="bg" x="226.8" y="36" width="8.4" height="18" fill="#2B89F0"/>
<rect class="bg" x="235.2" y="36" width="8.4" height="18" fill="#2B89F0"/>
<rect class="bg" x="243.6" y="36" width="8.4" height="18" fill="#2B89F0"/>
<rect class="bg" x="252" y="36" width="8.4" height="18" fill="#2B89F0"/>
<rect class="bg" x="260.4" y="36" width="8.4" height="18" fill="#2B89F0"/>
<text class="crt" x="268.8" y="50" fill="#FEFEFE" textLength="8.4" lengthAdjust="spacing" style="font-weight:bold;">║</text>
<rect class="bg" x="277.2" y="36" width="8.4" height="18" fill="#2B89F0"/>
<rect class="bg" x="285.6" y="36" width="8.4" height="18" fill="#2B89F0"/>
<text class="crt" x="294" y="50" fill="#FEFEFE" textLength="8.4" lengthAdjust="spacing" style="font-weight:bold;">║</text>
<text class="crt" x="352.8" y="50" fill="#2B89F0" textLength="58.8" lengthAdjust="spacing" style="font-weight:bold;">Project</text>
<text class="crt" x="411.6" y="50" fill="#FEFEFE" textLength="8.4" lengthAdjust="spacing" style="font-weight:bold;">:</text>
<text class="crt" x="428.4" y="50" fill="#d4d4d4" textLength="184.8" lengthAdjust="spacing">Data_Structures_Pascal</text>
<rect class="bg" x="0" y="54" width="8.4" height="18" fill="#2B89F0"/>
<rect class="bg" x="8.4" y="54" width="8.4" height="18" fill="#2B89F0"/>
<text class="crt" x="16.8" y="68" fill="#FEFEFE" textLength="33.6" lengthAdjust="spacing" style="font-weight:bold;">╔══╝</text>
<rect class="bg" x="58.8" y="54" width="8.4" height="18" fill="#2B89F0"/>
<rect class="bg" x="67.2" y="54" width="8.4" height="18" fill="#2B89F0"/>
<text class="crt" x="75.6" y="68" fill="#FEFEFE" textLength="16.8" lengthAdjust="spacing" style="font-weight:bold;">╔═</text>
<rect class="bg" x="92.4" y="54" width="8.4" height="18" fill="#2B89F0"/>
<rect class="bg" x="100.8" y="54" width="8.4" height="18" fill="#2B89F0"/>
<text class="crt" x="109.2" y="68" fill="#FEFEFE" textLength="33.6" lengthAdjust="spacing" style="font-weight:bold;">║╚══</text>
<rect class="bg" x="142.8" y="54" width="8.4" height="18" fill="#2B89F0"/>
<rect class="bg" x="151.2" y="54" width="8.4" height="18" fill="#2B89F0"/>
<text class="crt" x="159.6" y="68" fill="#FEFEFE" textLength="8.4" lengthAdjust="spacing" style="font-weight:bold;">║</text>
<rect class="bg" x="168" y="54" width="8.4" height="18" fill="#2B89F0"/>
<rect class="bg" x="176.4" y="54" width="8.4" height="18" fill="#2B89F0"/>
<text class="crt" x="184.8" y="68" fill="#FEFEFE" textLength="8.4" lengthAdjust="spacing" style="font-weight:bold;">║</text>
<rect class="bg" x="218.4" y="54" width="8.4" height="18" fill="#2B89F0"/>
<rect class="bg" x="226.8" y="54" width="8.4" height="18" fill="#2B89F0"/>
<text class="crt" x="235.2" y="68" fill="#FEFEFE" textLength="16.8" lengthAdjust="spacing" style="font-weight:bold;">╔═</text>
<rect class="bg" x="252" y="54" width="8.4" height="18" fill="#2B89F0"/>
<rect class="bg" x="260.4" y="54" width="8.4" height="18" fill="#2B89F0"/>
<text class="crt" x="268.8" y="68" fill="#FEFEFE" textLength="8.4" lengthAdjust="spacing" style="font-weight:bold;">║</text>
<rect class="bg" x="277.2" y="54" width="8.4" height="18" fill="#2B89F0"/>
<rect class="bg" x="285.6" y="54" width="8.4" height="18" fill="#2B89F0"/>
<text class="crt" x="294" y="68" fill="#FEFEFE" textLength="8.4" lengthAdjust="spacing" style="font-weight:bold;">║</text>
<text class="crt" x="352.8" y="68" fill="#2B89F0" textLength="33.6" lengthAdjust="spacing" style="font-weight:bold;">HEAD</text>
<text class="crt" x="386.4" y="68" fill="#FEFEFE" textLength="8.4" lengthAdjust="spacing" style="font-weight:bold;">:</text>
<text class="crt" x="403.2" y="68" fill="#d4d4d4" textLength="58.8" lengthAdjust="spacing">2f78b98</text>
<text class="crt" x="470.4" y="68" fill="#d4d4d4" textLength="50.4" lengthAdjust="spacing">(main,</text>
<text class="crt" x="529.2" y="68" fill="#d4d4d4" textLength="100.8" lengthAdjust="spacing">origin/main)</text>
<rect class="bg" x="0" y="72" width="8.4" height="18" fill="#2B89F0"/>
<rect class="bg" x="8.4" y="72" width="8.4" height="18" fill="#2B89F0"/>
<text class="crt" x="16.8" y="86" fill="#FEFEFE" textLength="8.4" lengthAdjust="spacing" style="font-weight:bold;">║</text>
<rect class="bg" x="58.8" y="72" width="8.4" height="18" fill="#2B89F0"/>
<rect class="bg" x="67.2" y="72" width="8.4" height="18" fill="#2B89F0"/>
<text class="crt" x="75.6" y="86" fill="#FEFEFE" textLength="8.4" lengthAdjust="spacing" style="font-weight:bold;">║</text>
<rect class="bg" x="92.4" y="72" width="8.4" height="18" fill="#2B89F0"/>
<rect class="bg" x="100.8" y="72" width="8.4" height="18" fill="#2B89F0"/>
<text class="crt" x="109.2" y="86" fill="#FEFEFE" textLength="8.4" lengthAdjust="spacing" style="font-weight:bold;">║</text>
<rect class="bg" x="117.6" y="72" width="8.4" height="18" fill="#2B89F0"/>
<rect class="bg" x="126" y="72" width="8.4" height="18" fill="#2B89F0"/>
<rect class="bg" x="134.4" y="72" width="8.4" height="18" fill="#2B89F0"/>
<rect class="bg" x="142.8" y="72" width="8.4" height="18" fill="#2B89F0"/>
<rect class="bg" x="151.2" y="72" width="8.4" height="18" fill="#2B89F0"/>
<text class="crt" x="159.6" y="86" fill="#FEFEFE" textLength="16.8" lengthAdjust="spacing" style="font-weight:bold;">║╚</text>
<rect class="bg" x="176.4" y="72" width="8.4" height="18" fill="#2B89F0"/>
<rect class="bg" x="184.8" y="72" width="8.4" height="18" fill="#2B89F0"/>
<rect class="bg" x="193.2" y="72" width="8.4" height="18" fill="#2B89F0"/>
<rect class="bg" x="201.6" y="72" width="8.4" height="18" fill="#2B89F0"/>
<text class="crt" x="210" y="86" fill="#FEFEFE" textLength="8.4" lengthAdjust="spacing" style="font-weight:bold;">╗</text>
<rect class="bg" x="218.4" y="72" width="8.4" height="18" fill="#2B89F0"/>
<rect class="bg" x="226.8" y="72" width="8.4" height="18" fill="#2B89F0"/>
<text class="crt" x="235.2" y="86" fill="#FEFEFE" textLength="8.4" lengthAdjust="spacing" style="font-weight:bold;">║</text>
<rect class="bg" x="252" y="72" width="8.4" height="18" fill="#2B89F0"/>
<rect class="bg" x="260.4" y="72" width="8.4" height="18" fill="#2B89F0"/>
<text class="crt" x="268.8" y="86" fill="#FEFEFE" textLength="8.4" lengthAdjust="spacing" style="font-weight:bold;">║</text>
<rect class="bg" x="277.2" y="72" width="8.4" height="18" fill="#2B89F0"/>
<rect class="bg" x="285.6" y="72" width="8.4" height="18" fill="#2B89F0"/>
<rect class="bg" x="294" y="72" width="8.4" height="18" fill="#2B89F0"/>
<rect class="bg" x="302.4" y="72" width="8.4" height="18" fill="#2B89F0"/>
<rect class="bg" x="310.8" y="72" width="8.4" height="18" fill="#2B89F0"/>
<text class="crt" x="319.2" y="86" fill="#FEFEFE" textLength="8.4" lengthAdjust="spacing" style="font-weight:bold;">╗</text>
<text class="crt" x="352.8" y="86" fill="#2B89F0" textLength="58.8" lengthAdjust="spacing" style="font-weight:bold;">Created</text>
<text class="crt" x="411.6" y="86" fill="#FEFEFE" textLength="8.4" lengthAdjust="spacing" style="font-weight:bold;">:</text>
<text class="crt" x="428.4" y="86" fill="#d4d4d4" textLength="8.4" lengthAdjust="spacing">a</text>
<text class="crt" x="445.2" y="86" fill="#d4d4d4" textLength="42" lengthAdjust="spacing">month</text>
<text class="crt" x="495.6" y="86" fill="#d4d4d4" textLength="25.2" lengthAdjust="spacing">ago</text>
<rect class="bg" x="436.8" y="90" width="218.4" height="18" fill="#E3F171"/>
<text class="crt" x="0" y="104" fill="#FEFEFE" textLength="25.2" lengthAdjust="spacing" style="font-weight:bold;">╚═╝</text>
<text class="crt" x="58.8" y="104" fill="#FEFEFE" textLength="25.2" lengthAdjust="spacing" style="font-weight:bold;">╚═╝</text>
<text class="crt" x="92.4" y="104" fill="#FEFEFE" textLength="75.6" lengthAdjust="spacing" style="font-weight:bold;">╚═╝╚════╝</text>
<text class="crt" x="176.4" y="104" fill="#FEFEFE" textLength="67.2" lengthAdjust="spacing" style="font-weight:bold;">╚═══╝╚═╝</text>
<text class="crt" x="252" y="104" fill="#FEFEFE" textLength="75.6" lengthAdjust="spacing" style="font-weight:bold;">╚═╝╚════╝</text>
<text class="crt" x="352.8" y="104" fill="#2B89F0" textLength="67.2" lengthAdjust="spacing" style="font-weight:bold;">Language</text>
<text class="crt" x="420" y="104" fill="#FEFEFE" textLength="8.4" lengthAdjust="spacing" style="font-weight:bold;">:</text>
<text class="crt" x="436.8" y="122" fill="#E3F171" textLength="8.4" lengthAdjust="spacing">●</text>
<text class="crt" x="453.6" y="122" fill="#d4d4d4" textLength="50.4" lengthAdjust="spacing">Pascal</text>
<text class="crt" x="512.4" y="122" fill="#d4d4d4" textLength="50.4" lengthAdjust="spacing">(100.0</text>
<text class="crt" x="571.2" y="122" fill="#d4d4d4" textLength="16.8" lengthAdjust="spacing">%)</text>
<text class="crt" x="352.8" y="140" fill="#2B89F0" textLength="58.8" lengthAdjust="spacing" style="font-weight:bold;">Authors</text>
<text class="crt" x="411.6" y="140" fill="#FEFEFE" textLength="8.4" lengthAdjust="spacing" style="font-weight:bold;">:</text>
<text class="crt" x="428.4" y="140" fill="#d4d4d4" textLength="25.2" lengthAdjust="spacing">51%</text>
<text class="crt" x="462" y="140" fill="#d4d4d4" textLength="33.6" lengthAdjust="spacing">João</text>
<text class="crt" x="504" y="140" fill="#d4d4d4" textLength="42" lengthAdjust="spacing">Vitor</text>
<text class="crt" x="554.4" y="140" fill="#d4d4d4" textLength="42" lengthAdjust="spacing">Hobus</text>
<text class="crt" x="604.8" y="140" fill="#d4d4d4" textLength="16.8" lengthAdjust="spacing">20</text>
<text class="crt" x="428.4" y="158" fill="#d4d4d4" textLength="25.2" lengthAdjust="spacing">46%</text>
<text class="crt" x="462" y="158" fill="#d4d4d4" textLength="159.6" lengthAdjust="spacing">github-actions[bot]</text>
<text class="crt" x="630" y="158" fill="#d4d4d4" textLength="16.8" lengthAdjust="spacing">18</text>
<text class="crt" x="436.8" y="176" fill="#d4d4d4" textLength="16.8" lengthAdjust="spacing">3%</text>
<text class="crt" x="462" y="176" fill="#d4d4d4" textLength="75.6" lengthAdjust="spacing">miojo-dev</text>
<text class="crt" x="546" y="176" fill="#d4d4d4" textLength="8.4" lengthAdjust="spacing">1</text>
<text class="crt" x="352.8" y="194" fill="#2B89F0" textLength="33.6" lengthAdjust="spacing" style="font-weight:bold;">Last</text>
<text class="crt" x="394.8" y="194" fill="#2B89F0" textLength="50.4" lengthAdjust="spacing" style="font-weight:bold;">change</text>
<text class="crt" x="445.2" y="194" fill="#FEFEFE" textLength="8.4" lengthAdjust="spacing" style="font-weight:bold;">:</text>
<text class="crt" x="462" y="194" fill="#d4d4d4" textLength="16.8" lengthAdjust="spacing">14</text>
<text class="crt" x="487.2" y="194" fill="#d4d4d4" textLength="58.8" lengthAdjust="spacing">seconds</text>
<text class="crt" x="554.4" y="194" fill="#d4d4d4" textLength="25.2" lengthAdjust="spacing">ago</text>
<text class="crt" x="352.8" y="212" fill="#2B89F0" textLength="25.2" lengthAdjust="spacing" style="font-weight:bold;">URL</text>
<text class="crt" x="378" y="212" fill="#FEFEFE" textLength="8.4" lengthAdjust="spacing" style="font-weight:bold;">:</text>
<text class="crt" x="394.8" y="212" fill="#d4d4d4" textLength="428.4" lengthAdjust="spacing">https://github.com/miojo-dev/Data_Structures_Pascal</text>
<text class="crt" x="352.8" y="230" fill="#2B89F0" textLength="58.8" lengthAdjust="spacing" style="font-weight:bold;">Commits</text>
<text class="crt" x="411.6" y="230" fill="#FEFEFE" textLength="8.4" lengthAdjust="spacing" style="font-weight:bold;">:</text>
<text class="crt" x="428.4" y="230" fill="#d4d4d4" textLength="16.8" lengthAdjust="spacing">39</text>
<text class="crt" x="352.8" y="248" fill="#2B89F0" textLength="42" lengthAdjust="spacing" style="font-weight:bold;">Churn</text>
<text class="crt" x="403.2" y="248" fill="#2B89F0" textLength="33.6" lengthAdjust="spacing" style="font-weight:bold;">(12)</text>
<text class="crt" x="436.8" y="248" fill="#FEFEFE" textLength="8.4" lengthAdjust="spacing" style="font-weight:bold;">:</text>
<text class="crt" x="453.6" y="248" fill="#d4d4d4" textLength="100.8" lengthAdjust="spacing">onefetch.svg</text>
<text class="crt" x="562.8" y="248" fill="#d4d4d4" textLength="8.4" lengthAdjust="spacing">8</text>
<text class="crt" x="453.6" y="266" fill="#d4d4d4" textLength="142.8" lengthAdjust="spacing">pointer_queue.pas</text>
<text class="crt" x="604.8" y="266" fill="#d4d4d4" textLength="8.4" lengthAdjust="spacing">2</text>
<text class="crt" x="453.6" y="284" fill="#d4d4d4" textLength="142.8" lengthAdjust="spacing">Pointer_queue.pas</text>
<text class="crt" x="604.8" y="284" fill="#d4d4d4" textLength="8.4" lengthAdjust="spacing">1</text>
<text class="crt" x="352.8" y="302" fill="#2B89F0" textLength="42" lengthAdjust="spacing" style="font-weight:bold;">Lines</text>
<text class="crt" x="403.2" y="302" fill="#2B89F0" textLength="16.8" lengthAdjust="spacing" style="font-weight:bold;">of</text>
<text class="crt" x="428.4" y="302" fill="#2B89F0" textLength="33.6" lengthAdjust="spacing" style="font-weight:bold;">code</text>
<text class="crt" x="462" y="302" fill="#FEFEFE" textLength="8.4" lengthAdjust="spacing" style="font-weight:bold;">:</text>
<text class="crt" x="478.8" y="302" fill="#d4d4d4" textLength="25.2" lengthAdjust="spacing">482</text>
<text class="crt" x="352.8" y="320" fill="#2B89F0" textLength="33.6" lengthAdjust="spacing" style="font-weight:bold;">Size</text>
<text class="crt" x="386.4" y="320" fill="#FEFEFE" textLength="8.4" lengthAdjust="spacing" style="font-weight:bold;">:</text>
<text class="crt" x="403.2" y="320" fill="#d4d4d4" textLength="33.6" lengthAdjust="spacing">4.91</text>
<text class="crt" x="445.2" y="320" fill="#d4d4d4" textLength="25.2" lengthAdjust="spacing">MiB</text>
<text class="crt" x="478.8" y="320" fill="#d4d4d4" textLength="16.8" lengthAdjust="spacing">(8</text>
<text class="crt" x="504" y="320" fill="#d4d4d4" textLength="50.4" lengthAdjust="spacing">files)</text>
<rect class="bg" x="378" y="342" width="25.2" height="18" fill="#cd3131"/>
<rect class="bg" x="403.2" y="342" width="25.2" height="18" fill="#0dbc79"/>
<rect class="bg" x="428.4" y="342" width="25.2" height="18" fill="#e5e510"/>
<rect class="bg" x="453.6" y="342" width="25.2" height="18" fill="#2472c8"/>
<rect class="bg" x="478.8" y="342" width="25.2" height="18" fill="#bc3fbc"/>
<rect class="bg" x="504" y="342" width="25.2" height="18" fill="#11a8cd"/>
<rect class="bg" x="529.2" y="342" width="25.2" height="18" fill="#e5e5e5"/>
</g>
</svg>